<svg width="20" height="20" viewBox="0 0 20 20" fill="none" xmlns="http://www.w3.org/2000/svg">
<path d="M14.6776 12.9277C15.888 11.276 16.4301 9.2283 16.1955 7.19412C15.9609 5.15994 14.9668 3.28936 13.4123 1.9566C11.8577 0.623835 9.85727 -0.0728113 7.81113 0.0060301C5.76499 0.0848715 3.82406 0.933387 2.37667 2.38182C0.929274 3.83025 0.0821478 5.77178 0.00477057 7.81798C-0.0726067 9.86417 0.625471 11.8641 1.95934 13.4177C3.29322 14.9713 5.16452 15.964 7.19886 16.1972C9.2332 16.4303 11.2806 15.8867 12.9313 14.6752H12.9301C12.9676 14.7252 13.0076 14.7727 13.0526 14.8189L17.8651 19.6314C18.0995 19.866 18.4174 19.9978 18.749 19.9979C19.0806 19.9981 19.3987 19.8664 19.6332 19.6321C19.8678 19.3977 19.9996 19.0797 19.9997 18.7481C19.9998 18.4165 19.8682 18.0985 19.6338 17.8639L14.8213 13.0514C14.7766 13.0062 14.7286 12.9657 14.6776 12.9277ZM15.0001 8.12268C15.0001 9.02552 14.8223 9.91952 14.4768 10.7536C14.1313 11.5877 13.6248 12.3456 12.9864 12.984C12.348 13.6224 11.5901 14.1289 10.756 14.4744C9.92192 14.8199 9.02792 14.9977 8.12508 14.9977C7.22225 14.9977 6.32825 14.8199 5.49414 14.4744C4.66002 14.1289 3.90213 13.6224 3.26373 12.984C2.62532 12.3456 2.11891 11.5877 1.77341 10.7536C1.42791 9.91952 1.25008 9.02552 1.25008 8.12268C1.25008 6.29932 1.97441 4.55064 3.26373 3.26133C4.55304 1.97201 6.30172 1.24768 8.12508 1.24768C9.94845 1.24768 11.6971 1.97201 12.9864 3.26133C14.2758 4.55064 15.0001 6.29932 15.0001 8.12268Z" fill="#1E1E1E"/>
</svg>
